<?xml version="1.0" encoding="UTF-8" standalone="no"?>
<svg
   xmlns:dc="http://purl.org/dc/elements/1.1/"
   xmlns:cc="http://creativecommons.org/ns#"
   xmlns:rdf="http://www.w3.org/1999/02/22-rdf-syntax-ns#"
   xmlns:svg="http://www.w3.org/2000/svg"
   xmlns="http://www.w3.org/2000/svg"
   xmlns:sodipodi="http://sodipodi.sourceforge.net/DTD/sodipodi-0.dtd"
   xmlns:inkscape="http://www.inkscape.org/namespaces/inkscape"
   version="1.1"
   x="0px"
   y="0px"
   viewBox="0 0 93.955002 81.719474"
   enable-background="new 0 0 100 100"
   xml:space="preserve"
   id="svg2"
   inkscape:version="0.91 r13725"
   sodipodi:docname="eye_crossed.svg"
   width="93.955002"
   height="81.719475"><metadata
     id="metadata20"><rdf:RDF><cc:Work
         rdf:about=""><dc:format>image/svg+xml</dc:format><dc:type
           rdf:resource="http://purl.org/dc/dcmitype/StillImage" /><dc:title></dc:title></cc:Work></rdf:RDF></metadata><defs
     id="defs18" /><sodipodi:namedview
     pagecolor="#ffffff"
     bordercolor="#666666"
     borderopacity="1"
     objecttolerance="10"
     gridtolerance="10"
     guidetolerance="10"
     inkscape:pageopacity="0"
     inkscape:pageshadow="2"
     inkscape:window-width="3195"
     inkscape:window-height="1900"
     id="namedview16"
     showgrid="false"
     fit-margin-top="0"
     fit-margin-left="0"
     fit-margin-right="0"
     fit-margin-bottom="0"
     inkscape:zoom="5.3400704"
     inkscape:cx="169.97883"
     inkscape:cy="53.151713"
     inkscape:window-x="0"
     inkscape:window-y="0"
     inkscape:window-maximized="0"
     inkscape:current-layer="svg2" /><g
     id="g4"
     transform="translate(-3,-9.0312732)"
     style="fill:#ffffff;fill-opacity:1"><g
       id="g6"
       style="fill:#ffffff;fill-opacity:1"><path
         d="M 49.812,28 C 21.976,28.003 3,50.785 3,50.785 20.45,68.234 36.702,74.048 50.622,74.048 78.458,74.048 96.955,50.785 96.955,50.785 79.865,33.694 63.732,27.999 49.812,28 Z m 0.81,42.012 c -14.089,0 -28.185,-6.506 -41.946,-19.353 5.855,-5.748 21.197,-18.621 41.14,-18.623 l 10e-4,0 c 14.087,0 28.042,6.367 41.524,18.937 -5.677,5.826 -20.754,19.039 -40.719,19.039 z"
         id="path8"
         inkscape:connector-curvature="0"
         style="fill:#ffffff;fill-opacity:1" /><circle
         cx="49.978001"
         cy="51.023998"
         r="12.377"
         id="circle10"
         style="fill:#ffffff;fill-opacity:1" /></g></g><rect
     style="opacity:1;fill:#ffffff;fill-opacity:1;stroke:none;stroke-width:2.70700002;stroke-linecap:round;stroke-linejoin:miter;stroke-miterlimit:4;stroke-dasharray:none;stroke-dashoffset:0;stroke-opacity:1"
     id="rect4167"
     width="105.41539"
     height="8.4256792"
     x="-48.897873"
     y="58.590214"
     transform="matrix(0.69426165,-0.7197227,0.7197227,0.69426165,0,0)" /></svg>